<svg aria-hidden="true" style="position: absolute; width: 0; height: 0; overflow: hidden;" version="1.1"
    xmlns="http://www.w3.org/2000/svg" xmlns:xlink="http://www.w3.org/1999/xlink">
    <defs>
        <symbol id="arrow" viewBox="0 0 32 32">
            <path fill="#fbfbfb" style="fill: var(--color1, #fbfbfb)"
                d="M26.020 3.149c-0.145-1.029-1.096-1.747-2.126-1.602l-16.776 2.358c-1.029 0.145-1.747 1.097-1.602 2.126s1.097 1.747 2.126 1.602l14.912-2.096 2.096 14.912c0.145 1.029 1.096 1.747 2.126 1.602s1.747-1.097 1.602-2.126l-2.358-16.776zM5.268 31.604l20.391-27.060-3.007-2.266-20.391 27.060 3.007 2.266z">
            </path>
        </symbol>
        <symbol id="check" viewBox="0 0 32 32">
            <path fill="#3470ff" style="fill: var(--color2, #3470ff)" d="M4 12l-4 4 12 12 20-20-4-4-16 16-8-8z"></path>
        </symbol>
        <symbol id="clock" viewBox="0 0 32 32">
            <path stroke-linejoin="round" stroke-linecap="round" stroke-miterlimit="4" stroke-width="2.4"
                d="M16 29.333c7.364 0 13.333-5.969 13.333-13.333s-5.97-13.333-13.333-13.333c-7.364 0-13.333 5.97-13.333 13.333s5.97 13.333 13.333 13.333z">
            </path>
            <path stroke-linejoin="round" stroke-linecap="round" stroke-miterlimit="4" stroke-width="2.4"
                d="M16 8v8l5.333 2.667"></path>
        </symbol>
        <symbol id="eye" viewBox="0 0 32 32">
            <path stroke-linejoin="round" stroke-linecap="round" stroke-miterlimit="4" stroke-width="3.2"
                d="M1.334 16c0 0 5.333-10.667 14.667-10.667s14.667 10.667 14.667 10.667-5.333 10.667-14.667 10.667c-9.333 0-14.667-10.667-14.667-10.667z">
            </path>
            <path stroke-linejoin="round" stroke-linecap="round" stroke-miterlimit="4" stroke-width="3.2"
                d="M16 20c2.209 0 4-1.791 4-4s-1.791-4-4-4c-2.209 0-4 1.791-4 4s1.791 4 4 4z"></path>
        </symbol>
        <symbol id="eye-off" viewBox="0 0 32 32">
            <path stroke-linejoin="round" stroke-linecap="round" stroke-miterlimit="4" stroke-width="3.2"
                d="M23.92 23.92c-2.279 1.737-5.055 2.7-7.92 2.747-9.333 0-14.667-10.667-14.667-10.667 1.659-3.091 3.959-5.791 6.747-7.92M13.2 5.653c0.918-0.215 1.857-0.322 2.8-0.32 9.333 0 14.667 10.667 14.667 10.667-0.809 1.514-1.775 2.94-2.88 4.253M18.827 18.827c-0.366 0.393-0.808 0.708-1.298 0.927s-1.020 0.336-1.557 0.346c-0.537 0.009-1.071-0.089-1.569-0.291s-0.951-0.501-1.33-0.88c-0.38-0.38-0.679-0.832-0.88-1.33s-0.3-1.032-0.29-1.569c0.009-0.537 0.127-1.067 0.346-1.558s0.534-0.932 0.927-1.298">
            </path>
            <path stroke-linejoin="round" stroke-linecap="round" stroke-miterlimit="4" stroke-width="3.2"
                d="M1.334 1.333l29.333 29.333"></path>
        </symbol>
        <symbol id="follow" viewBox="0 0 32 32">
            <path stroke-linejoin="round" stroke-linecap="round" stroke-miterlimit="4" stroke-width="2.4615"
                d="M27.787 6.147c-0.681-0.681-1.49-1.222-2.379-1.591s-1.844-0.559-2.807-0.559-1.917 0.19-2.807 0.559c-0.89 0.369-1.699 0.909-2.38 1.591l-1.413 1.413-1.413-1.413c-1.376-1.376-3.241-2.148-5.187-2.148s-3.811 0.773-5.187 2.148c-1.376 1.376-2.148 3.241-2.148 5.187s0.773 3.811 2.148 5.187l11.787 11.787 11.787-11.787c0.681-0.681 1.222-1.49 1.591-2.38s0.559-1.844 0.559-2.807-0.19-1.917-0.559-2.807c-0.369-0.89-0.909-1.699-1.591-2.38z">
            </path>
        </symbol>
        <symbol id="star" viewBox="0 0 32 32">
            <path fill="#ffc531" style="fill: var(--color3, #ffc531); stroke: var(--color3, #ffc531)" stroke="#ffc531"
                stroke-linejoin="miter" stroke-linecap="butt" stroke-miterlimit="4" stroke-width="2.4"
                d="M12.4 9.394l3.6-6.822 3.6 6.822c0.318 0.603 0.899 1.025 1.571 1.141l7.601 1.315-5.376 5.532c-0.475 0.489-0.697 1.171-0.6 1.846l1.098 7.635-6.922-3.404c-0.612-0.301-1.329-0.301-1.941 0l-6.922 3.404 1.098-7.635c0.097-0.675-0.125-1.357-0.6-1.846l-5.376-5.532 7.601-1.315c0.672-0.116 1.252-0.538 1.571-1.141zM29.035 11.579v0zM7.767 27.031c0 0 0 0 0 0h-0z">
            </path>
        </symbol>
        <symbol id="user" viewBox="0 0 32 32">
            <path fill="#fbfbfb" style="fill: var(--color1, #fbfbfb)"
                d="M16 5.333c1.415 0 2.771 0.562 3.771 1.562s1.562 2.357 1.562 3.771-0.562 2.771-1.562 3.771c-1 1-2.357 1.562-3.771 1.562s-2.771-0.562-3.771-1.562c-1-1-1.562-2.357-1.562-3.771s0.562-2.771 1.562-3.771c1-1 2.357-1.562 3.771-1.562zM16 18.667c5.893 0 10.667 2.387 10.667 5.333v2.667h-21.333v-2.667c0-2.947 4.773-5.333 10.667-5.333z">
            </path>
        </symbol>
        <symbol id="users" viewBox="0 0 32 32">
            <path fill="#fbfbfb" style="fill: var(--color1, #fbfbfb)"
                d="M19.043 22.529l-0.548 2.044-14.306-3.833 0.548-2.044c0 0 1.095-4.087 8.248-2.171s6.058 6.004 6.058 6.004zM18.067 11.863c0.19-0.707 0.165-1.455-0.070-2.149s-0.671-1.302-1.252-1.747c-0.581-0.446-1.281-0.709-2.012-0.757s-1.459 0.122-2.094 0.488c-0.634 0.366-1.146 0.912-1.469 1.569s-0.446 1.395-0.35 2.121c0.096 0.726 0.404 1.407 0.887 1.958s1.118 0.946 1.825 1.135c0.949 0.254 1.959 0.121 2.81-0.37s1.471-1.3 1.725-2.248zM20.077 18.425c0.498 0.654 0.846 1.41 1.021 2.214s0.171 1.636-0.011 2.438l-0.548 2.044 4.087 1.095 0.548-2.044c0 0 0.994-3.709-5.097-5.747zM21.58 8.971c-0.702-0.192-1.447-0.166-2.134 0.074 0.388 1.034 0.443 2.163 0.158 3.229s-0.898 2.017-1.751 2.718c0.475 0.552 1.106 0.947 1.811 1.131 0.948 0.254 1.959 0.121 2.81-0.37s1.471-1.3 1.725-2.248c0.254-0.949 0.121-1.959-0.37-2.81s-1.3-1.471-2.248-1.725z">
            </path>
        </symbol>
        <symbol id="x" viewBox="0 0 32 32">
            <path stroke-linejoin="round" stroke-linecap="round" stroke-miterlimit="4" stroke-width="2.5"
                d="M24 8l-16 16"></path>
            <path stroke-linejoin="round" stroke-linecap="round" stroke-miterlimit="4" stroke-width="2.5"
                d="M8 8l16 16"></path>
        </symbol>
    </defs>
</svg>